<svg xmlns="http://www.w3.org/2000/svg" viewBox="0 0 122.88 122.88" style="enable-background:new 0 0 122.88 122.88" xml:space="preserve"><path d="m58.76 44.64-6.9-6.9-.58 8.81 7.48 7.48v-9.39zM32.17 35.1l-12.8.48a2.695 2.695 0 0 1-2.79-2.6 2.695 2.695 0 0 1 2.6-2.79l7.78-.29-8.81-8.81a2.704 2.704 0 0 1 0-3.83 2.704 2.704 0 0 1 3.83 0l8.67 8.67.12-7.29a2.702 2.702 0 0 1 2.74-2.66c1.49.02 2.68 1.25 2.66 2.74l-.2 12.52L47.2 42.47l.64-9.78c.07-1.19 1.1-2.1 2.29-2.02.55.03 1.03.27 1.39.63l7.22 7.22v-17.7l-9-8.72a2.701 2.701 0 1 1 3.77-3.87l5.23 5.07V2.71c0-1.5 1.21-2.71 2.71-2.71s2.71 1.21 2.71 2.71v10.77l5.71-5.29c1.09-1.02 2.8-.96 3.82.14 1.02 1.09.96 2.8-.14 3.82l-9.39 8.71v16.89l7.51-6.58c.9-.79 2.26-.69 3.05.2.36.41.53.92.53 1.42h.01v10.92l13.07-13.07-.2-12.52a2.702 2.702 0 0 1 2.66-2.74 2.702 2.702 0 0 1 2.74 2.66l.12 7.29 7.49-7.49a2.704 2.704 0 0 1 3.83 0 2.704 2.704 0 0 1 0 3.83l-7.62 7.62 7.78.29c1.49.05 2.66 1.3 2.6 2.79a2.688 2.688 0 0 1-2.79 2.6l-12.8-.48-11.83 11.85 9.28.61c1.19.07 2.1 1.1 2.02 2.29-.03.55-.27 1.03-.63 1.39l-7.28 7.28h18.34l8.72-9a2.701 2.701 0 1 1 3.87 3.77l-5.07 5.23h10.58c1.5 0 2.71 1.21 2.71 2.71s-1.21 2.71-2.71 2.71H109.4l5.29 5.71c1.02 1.09.96 2.8-.14 3.82-1.09 1.02-2.8.96-3.82-.14l-8.71-9.39H84.59l6.53 7.45c.79.9.69 2.26-.2 3.05-.41.36-.92.53-1.42.53v.01H79.11L92.23 87.5l12.52-.2a2.702 2.702 0 0 1 2.74 2.66 2.702 2.702 0 0 1-2.66 2.74l-7.29.12 7.49 7.49a2.704 2.704 0 0 1 0 3.83 2.704 2.704 0 0 1-3.83 0l-7.62-7.62-.29 7.78a2.688 2.688 0 0 1-2.79 2.6 2.688 2.688 0 0 1-2.6-2.79l.48-12.8-12.4-12.4-.64 9.78c-.07 1.19-1.1 2.1-2.29 2.02-.55-.03-1.03-.27-1.39-.63l-7.47-7.47v17.72l9.39 8.71a2.712 2.712 0 0 1 .14 3.82 2.712 2.712 0 0 1-3.82.14l-5.71-5.29v12.45c0 1.5-1.21 2.71-2.71 2.71s-2.71-1.21-2.71-2.71V107.9l-5.23 5.07a2.701 2.701 0 1 1-3.77-3.87l9-8.72V83.86l-7.26 6.36c-.9.79-2.26.69-3.05-.2-.36-.41-.53-.92-.53-1.42h-.01v-9.85L35.94 90.71l.48 12.8a2.695 2.695 0 0 1-2.6 2.79 2.695 2.695 0 0 1-2.79-2.6l-.29-7.78-8.81 8.81a2.704 2.704 0 0 1-3.83 0 2.704 2.704 0 0 1 0-3.83l8.67-8.67-7.29-.12a2.702 2.702 0 0 1-2.66-2.74 2.702 2.702 0 0 1 2.74-2.66l12.52.2 11.8-11.8-10.28-.68c-1.19-.07-2.1-1.1-2.02-2.29.03-.55.27-1.03.63-1.39l7.4-7.41H22.54l-8.71 9.39a2.712 2.712 0 0 1-3.82.14 2.712 2.712 0 0 1-.14-3.82l5.29-5.71H2.71c-1.5 0-2.71-1.21-2.71-2.71s1.21-2.71 2.71-2.71h12.26L9.9 52.69a2.701 2.701 0 1 1 3.87-3.77l8.72 9h15.99l-6.41-7.32c-.79-.9-.69-2.26.2-3.05.41-.36.92-.53 1.42-.53v-.01h10.38L32.17 35.1zm16.24 16.25h-9.95l5.76 6.57h10.76l-6.57-6.57zm23.5 23.49-7.73-7.73v9.39l7.15 7.15.58-8.81zm-3.84-11.5 6.7 6.7h9.95l-5.87-6.7H68.07zm-22.34 0-7.09 7.09 9.31.61 7.71-7.71h-9.93v.01zm23-5.42h8.85l6.97-6.97-8.31-.55-7.51 7.52zM52.25 74.4v9.41l6.51-5.71V67.89l-6.51 6.51zm11.93-19.59 6.76-6.76V37.57l-6.76 5.93v11.31z"/></svg>